<svg xmlns="http://www.w3.org/2000/svg" viewBox="-8 -2 110 132" fill="none"
     stroke="currentColor" stroke-width="2.3" stroke-linejoin="round" stroke-linecap="round"
     role="img" aria-label="Goose holding a quill">
  <path d="M50 4C60 4 66 11 66 21 66 28 63 32 62 37 61 41 61 45 60 49 77 54 90 67 90 85 90 94 86 100 79 104 71 108 61 110 50 110 28 110 10 102 10 85 10 67 23 54 40 49 39 45 39 41 38 37 37 32 34 28 34 21 34 11 40 4 50 4Z"/>
  <path d="M76 66C75 80 70 90 61 96" stroke-width="1.5"/>
  <path d="M41 110 39 117M39 117 28 122Q39 124 50 122Z" fill="var(--act, #E3AE28)"/>
  <path d="M59 110 61 117M61 117 50 122Q61 124 72 122Z" fill="var(--act, #E3AE28)"/>
  <circle cx="43.5" cy="16" r="1.8" fill="currentColor" stroke="none"/>
  <circle cx="56.5" cy="16" r="1.8" fill="currentColor" stroke="none"/>
  <g transform="translate(42,27) rotate(200)">
    <path d="M2 0 44 0" stroke-width="1.6"/>
    <path d="M8 0C14-7 26-10 42-1L44 0 42 1C26 10 14 7 8 0Z" fill="var(--background, #fff)" stroke-width="1.6"/>
    <path d="M16-3 22-6M24-4 30-7M32-4 38-6" stroke-width="1"/>
    <path d="M16 3 22 6M24 4 30 7M32 4 38 6" stroke-width="1"/>
  </g>
  <path d="M37 23Q50 18 63 23Q50 33 37 23Z" fill="var(--act, #E3AE28)" stroke-width="1.5"/>
</svg>
